<svg xmlns="http://www.w3.org/2000/svg" width="110" height="32" fill="none"><mask id="a" width="110" height="32" x="0" y="0" maskUnits="userSpaceOnUse" style="mask-type:luminance"><path fill="#fff" d="M109.076 0H0v31.814h109.076V0z"/></mask><g fill="#8439ED" mask="url(#a)"><path d="M49.189 18.288v-.033c0-1.566-.834-2.35-2.183-2.866.833-.467 1.533-1.2 1.533-2.517v-.033c0-1.833-1.467-3.016-3.85-3.016h-5.416v11.665h5.55c2.633 0 4.366-1.067 4.366-3.2zm-3.2-4.982c0 .866-.716 1.233-1.85 1.233h-2.366v-2.466h2.533c1.083 0 1.683.433 1.683 1.2v.033zm.65 4.666c0 .866-.683 1.266-1.816 1.266h-3.05v-2.566h2.966c1.317 0 1.9.483 1.9 1.266v.034zm16.41 3.516-2.85-4.166c1.483-.55 2.5-1.733 2.5-3.616v-.034c0-2.4-1.65-3.85-4.4-3.85h-5.333v11.666h2.567v-3.733h2.016l2.5 3.733h3zm-2.95-7.65c0 .984-.717 1.65-1.967 1.65h-2.6V12.14h2.55c1.25 0 2.017.567 2.017 1.667v.033zm9.26 7.65V9.823h-2.567v11.665h2.566zm15.33-5.833v-.033c0-3.283-2.533-5.8-6.2-5.8H73.94v11.666h4.549c3.667 0 6.2-2.55 6.2-5.833zm-2.683.034c0 2.066-1.417 3.483-3.517 3.483h-1.983v-7.033h1.983c2.1 0 3.516 1.45 3.516 3.516v.034zm15.018 5.799v-2.333h-5.816V9.823h-2.566v11.665h8.382zm12.484 0v-2.283h-6.332v-2.45h5.499v-2.283h-5.499v-2.366h6.249V9.823h-8.799v11.665h8.882zm-77.9-2.445c-1.148 2.07-2.325 3.129-3.597 3.238-1.011.087-1.968-.43-2.862-1.532-.3-.37-.576-.724-.839-1.06-1.34-1.717-2.213-2.833-4.081-3.378l-.96 15.503-1.486-.088.979-15.793c-1.335-.54-2.16-1.943-2.197-3.822-.039-1.984.894-4.206 2.753-4.613l.325 1.422c-.923.202-1.622 1.591-1.59 3.163.022 1.122.459 2.395 1.62 2.603 3.028.544 4.26 2.121 5.819 4.118.257.33.527.676.822 1.038.564.696 1.085 1.025 1.567.988.706-.061 1.566-.942 2.419-2.482.67-1.207-3.244-7.485-7.318-12.592l-.546-.684.782-.408c1.293-.673 1.887-2.103 2.15-3.056-1.045.235-2.793.873-4.407 2.602l-.285.305-.413-.083c-1.903-.38-5.477.01-5.512.013-4.598.634-7.73 3.753-9.208 5.588l5.478-.86-2.457 1.779c-.046.034-4.405 3.275-5.335 9.108l4.387-1.471-.889 1.63c-.14.259-3.471 6.338-5.939 7.848L0 26.831c1.337-.817 3.222-3.608 4.457-5.643l-2.928.982.084-1.102c.352-4.564 2.593-7.803 4.25-9.61l-3.36.529.777-1.324C3.44 10.39 7.264 4.007 14.563 3c.164-.018 3.419-.375 5.583-.066C22.991.101 26.148.016 26.286.014l.83-.014-.078.81c-.013.136-.316 3.057-2.392 4.672 2.514 3.21 8.332 11.088 6.962 13.561zm-6.63-8.51-.294-1.428-2.094.413.293 1.429 2.095-.413z"/></g></svg>